<svg xmlns="http://www.w3.org/2000/svg" width="13" height="13" viewBox="0 0 13 13" fill="none">
<path d="M5.673 2.844L6.263 1.647C6.285 1.603 6.319 1.566 6.361 1.539C6.403 1.513 6.451 1.5 6.501 1.5C6.55 1.5 6.598 1.513 6.64 1.539C6.682 1.566 6.716 1.603 6.738 1.647L7.893 3.987C7.969 4.141 8.081 4.274 8.22 4.375C8.359 4.476 8.521 4.542 8.69 4.567L11.273 4.945C11.322 4.952 11.368 4.973 11.406 5.004C11.444 5.036 11.472 5.078 11.487 5.125C11.503 5.172 11.505 5.223 11.493 5.271C11.481 5.319 11.456 5.362 11.42 5.397L9.802 6.973M9.473 9.473L9.688 10.725C9.696 10.774 9.691 10.825 9.673 10.871C9.654 10.917 9.623 10.957 9.583 10.986C9.542 11.015 9.495 11.032 9.445 11.036C9.396 11.039 9.346 11.029 9.302 11.005L6.993 9.791C6.841 9.711 6.672 9.67 6.5 9.67C6.328 9.67 6.159 9.711 6.007 9.791L3.698 11.005C3.655 11.029 3.605 11.039 3.556 11.036C3.506 11.032 3.459 11.015 3.419 10.986C3.378 10.956 3.347 10.917 3.329 10.871C3.31 10.825 3.305 10.774 3.313 10.725L3.754 8.156C3.783 7.986 3.771 7.812 3.717 7.648C3.664 7.484 3.572 7.336 3.448 7.216L1.581 5.397C1.545 5.363 1.519 5.319 1.507 5.271C1.495 5.223 1.497 5.172 1.513 5.125C1.528 5.078 1.556 5.036 1.594 5.004C1.632 4.972 1.678 4.951 1.727 4.944L4.31 4.567C4.377 4.552 4.444 4.536 4.51 4.517M1.501 1.5L11.5 11.5" stroke="#3C3846" stroke-width="2" stroke-linecap="round"/>
</svg>
